<svg version="1.1" id="Layer_1" xmlns="http://www.w3.org/2000/svg" x="0" y="0" viewBox="0 0 250 250" style="enable-background:new 0 0 250 250" xml:space="preserve"><style>.st0{fill:#a7a9ac}</style><path class="st0" d="m73.2 178.7-2 2.9c-.7 1-.4 2.3.6 3 .4.2.8.4 1.2.4.7 0 1.4-.3 1.8-1l2-2.9c.7-1 .4-2.3-.6-3-1-.6-2.3-.4-3 .6z"/><path class="st0" d="M210.4 131.3c-.5-1.1-1.7-1.6-2.8-1.1l-35.9 15.3c-2.3 1-2.9 3.1-2.9 3.2-7.6-.1-25.5 2.1-44.6 6.9-9.7-1.2-16.9 0-20.9 1.1-.5-1.3-1.5-2.4-2.7-3.3l-16.2-10.8c-1-.7-2.3-.4-3 .6-.7 1-.4 2.3.6 3L98.2 157c.6.4 1.6 1.6 1.2 2l-23.2 35c-.2.3-1.3.4-2.3-.3l-31.1-20.6c-1-.7-2.3-.4-3 .6-.7 1-.4 2.3.6 3l31.1 20.6c1.3.9 2.7 1.3 4 1.3 1.7 0 3.3-.7 4.2-2.1.6 3.2 1.6 6.1 2.9 8.7-1.3 3-.6 6.6 2.1 8.8l1.2 1c1.6 1.3 3.6 1.9 5.8 1.5 0 0 0 3.2 2.9 5.6l.1.1c3 2.4 6.1 1.7 6.1 1.7.1 2.5 1.4 4.3 2.7 5.3l1.2 1c2.4 1.9 4.8 1.6 5.1 1.6.1 1.7.9 3.3 2.3 4.4l1.7 1.4c2.9 2.3 6.9 1.7 9-.9l.8-.9c10.7 7.1 19.8 13.2 20 13.3 3.7 2 9.9 2.4 13.4-3.2 1.6-2.5 1.8-4.8 1.2-6.8 2.9-.5 5.8-2.2 7.2-4.4 1.7-2.7 1.7-5.3 1.2-7.4.7 0 1.5-.1 2.3-.3 2.9-.7 5.2-2.6 6.5-5 1.2-2.3 1.3-4.9.3-7.5 2.8 0 5.9-1.1 8.2-4.5 1.6-2.4 2.1-4.8 1.7-7.1-.2-1-.6-1.9-1-2.6 1.4-1.6 2.7-3.5 3.8-5.6 1.7 1.3 3.7 1.5 5.4.8l13.9-5.6c1.1-.4 1.6-1.7 1.2-2.8-.4-1.1-1.7-1.6-2.8-1.2l-14 5.6c-.6.3-1.2 0-1.5-.6l-17.5-39.6c-.1-.6-.4-1.2.5-1.6l35.9-15.3c.9-.8 1.4-2 .9-3.1zm-41.3 21.6 16.4 36.9c-1 2.7-2.4 5.1-4 7.1l-37.1-25.7.9.3 8.3 3.5c1.5.6 2.6-.6 2.8-1.1.5-1.1-.1-2.3-1.1-2.8l-8.3-3.5c-4-1.7-7-.9-9.6-.5l-11.2 1.8c-1.7.3-3.4-.5-4.2-1.8-.5-.9-.8-1.7-.9-2.6-.4-3.4 3.2-4.4 3.9-4.6 19.9-5.3 37.7-7.2 44.1-7zm-80.5 58.4-1.2-1c-1.2-1-1.5-2.8-.7-4.1 0-.1 6.3-7.9 6.3-7.9 1.1-1.4 3.1-1.5 4.4-.5l1.2 1c1.4 1.1 1.5 3.1.5 4.4l-6.1 7.5c-1.1 1.6-3.2 1.7-4.4.6zm8.8 7.2c-1.7-1.4-2-3.8-.6-5.5l8.9-11c1.3-1.7 3.8-1.9 5.5-.5 1.7 1.3 1.9 3.8.6 5.5l-8.9 11c-1.4 1.6-3.9 1.9-5.5.5zm10 8-1.2-1c-1.4-1.1-1.5-3.1-.5-4.4l6.1-7.5c1.1-1.4 3.1-1.5 4.4-.5l1.2 1c1.3 1.1 1.6 3.1.5 4.4l-6.1 7.5c-1.1 1.4-3 1.6-4.4.5zm9.2 7.5-1.7-1.4c-.9-.7-1.1-2.1-.3-3l4-4.9c.7-.9 2.1-1.1 3-.3l1.7 1.4c.9.7 1.1 2.1.3 3l-4 4.9c-.7.9-2.1 1-3 .3zm63.7-26.8c-2.6 4-6.7 2.4-7.5 2l-23.2-15.5c-1-.7-2.3-.4-3 .6-.7 1-.4 2.3.6 3l21.8 14.5c1.7 1.7 4.1 4.8 2.5 7.8-.7 1.4-2.1 2.4-3.7 2.8-1.4.4-2.8.2-3.6-.3l-23.5-15.6c-1-.7-2.3-.4-3 .6-.7 1-.4 2.3.6 3l23.1 15.3c.5.9 2 3.8.3 6.6-1.2 1.9-4.8 2.8-5.6 2.5-1.3-.9-16.5-11-21.8-14.5-1-.7-2.3-.4-3 .6-.7 1-.4 2.3.6 3 3.9 2.6 13.1 8.7 18.3 12.1 5.5 3.6 4 6 3.1 7.4-2.5 4-6.9 2.1-7.7 1.7-1-.7-9.4-6.3-19.3-12.9l.5-.6c2.2-2.7 1.8-6.8-.9-9l-1.7-1.4c-.6-.5-1.3-.9-2.1-1.1 1.6-3.1.8-6.9-1.9-9.1l-1.2-1c-.9-.7-2-1.2-3.1-1.4 1.8-3.3 1.1-7.6-2.1-10.2-3-2.4-7.4-2.5-10.5.2-.5-1-1.1-2-2-2.7l-1.2-1c-3.2-2.6-7.8-2.1-10.4 1.1l-4.3 5.3c-1.2-3-2-6.5-2.1-10.2 22.2-33.4 19.3-29.1 19.7-29.8 0 0 7.8-1.9 15.1-1.7-1.1 1.5-1.7 3.3-1.4 5.5.2 1.5.7 2.9 1.5 4.3 1.8 2.8 5.1 4.4 8.5 3.8l10.4-1.6 42.2 29.3c.2.1 1.5 1.1 1.8 2.7.4 1.2.1 2.5-.8 3.9z"/><path class="st0" d="M181.7 150.2c-1.1.5-1.5 1.8-1 2.8l1.7 3.8c.5 1.1 1.8 1.5 2.8 1 1.1-.5 1.5-1.8 1-2.8l-1.7-3.8c-.4-1-1.7-1.5-2.8-1zM64.6 136.3c1.2 0 2.1-1 2.1-2.1V13.1c0-4.9 4-8.8 8.8-8.8h73.6v32.9c0 6.9 5.6 12.6 12.6 12.6H196v72.7c0 1.2 1 2.1 2.1 2.1 1.2 0 2.1-1 2.1-2.1V49.6c0-1.9-.8-3.7-2.1-5L154.2 2c-1.3-1.3-3-2-4.9-2H75.6c-7.2 0-13.1 5.9-13.1 13.1v121.1c0 1.1 1 2.1 2.1 2.1zm128.2-90.9h-31.1c-4.6 0-8.3-3.7-8.3-8.3V7.2l39.4 38.2z"/><path d="M173.7 71.8H85.3c-1.2 0-2.1 1-2.1 2.1 0 1.2 1 2.1 2.1 2.1h88.4c1.2 0 2.1-1 2.1-2.1 0-1.2-.9-2.1-2.1-2.1zM173.7 89.6H85.3c-1.2 0-2.1 1-2.1 2.1 0 1.2 1 2.1 2.1 2.1h88.4c1.2 0 2.1-1 2.1-2.1 0-1.2-.9-2.1-2.1-2.1zM175.8 110.1c0-1.2-1-2.1-2.1-2.1H85.3c-1.2 0-2.1 1-2.1 2.1 0 1.2 1 2.1 2.1 2.1h88.4c1.2 0 2.1-.9 2.1-2.1zM85.3 126.5c-1.2 0-2.1 1-2.1 2.1s1 2.1 2.1 2.1h45.3c1.2 0 2.1-1 2.1-2.1s-1-2.1-2.1-2.1H85.3z"/></svg>