<svg version="1.1" id="Layer_1" xmlns="http://www.w3.org/2000/svg" x="0" y="0" viewBox="0 0 250 250" style="enable-background:new 0 0 250 250" xml:space="preserve"><style>.st0{fill:#a7a9ac}</style><path d="M114.5 130.6c-16.1 0-29.2-13.1-29.2-29.2s13.1-29.2 29.2-29.2 29.2 13.1 29.2 29.2-13.1 29.2-29.2 29.2zm0-54.1c-13.7 0-24.9 11.2-24.9 24.9s11.2 24.9 24.9 24.9 24.9-11.2 24.9-24.9c.1-13.7-11.1-24.9-24.9-24.9zM193.3 205c-.6 0-1.2-.3-1.6-.8L168.6 177c-.8-.9-.7-2.2.2-3 .9-.8 2.2-.7 3 .2l21.5 25.3L243 140c.8-.9 2.1-1 3-.3.9.8 1 2.1.3 3L195 204.2c-.4.5-1 .8-1.7.8z"/><path class="st0" d="m169.1 214.8 4.9 5c.5.5 1.1.9 1.7 1.2h.1c.9.4 2 .5 3 .3.4-.1.7-.2 1-.3.1 0 .1-.1.2-.1-4-1.4-7.6-3.5-10.9-6.1zM160.2 205.3c-2.1 1.2-3.9 2.1-6.1 3.1-5.9 2.8-12.4 5-18.9 6.5l-.9.2c-1 .2-1.7 1.1-1.7 2.1l-.3 17.3v.4c-.2.3-.5.6-.8.6h-.2L95 235c-.5 0-.9-.3-1.1-.7 0-.1-.1-.3-.1-.4l.3-17.3c0-1-.6-1.9-1.6-2.1-4.8-1.2-8.4-2.4-12.6-4.1-4.9-2-9.7-4.5-14.3-7.4l-.8-.5c-.4-.2-.7-.3-1.1-.3-.5 0-1.1.2-1.5.6l-12.4 12c-.1.1-.2.2-.3.2-.4.2-.9.1-1.2-.3l-25.3-26c-.1-.1-.2-.2-.2-.4 0-.1 0-.1-.1-.2 0-.2 0-.4.1-.7.1-.1.1-.2.2-.3l12.4-12c.7-.7.9-1.8.4-2.6-1.9-3.2-3-5.4-4.4-8.2-.8-1.6-1.5-3.4-2.3-5.2v-.1c-1.7-4.4-3.1-9-4.2-13.6l-.2-.9c-.2-1-1.1-1.7-2.1-1.7l-17.3-.3c-.2 0-.3 0-.4-.1-.2-.1-.4-.3-.6-.6-.1-.1-.1-.3-.1-.4l.6-36.2v-.5c.1-.3.5-.5.7-.6h.4l17.2.3c1 0 1.9-.6 2.1-1.6 1.2-4.8 2.4-8.4 4.1-12.6 2-4.9 4.5-9.7 7.4-14.3l.5-.8c.5-.8.4-1.9-.3-2.6L25.1 60c-.1-.1-.2-.2-.2-.3-.2-.4-.1-.9.3-1.3l26.1-25.2c.2-.2.5-.3.8-.3.3 0 .6.1.8.4l12 12.4c.7.7 1.8.9 2.6.4 3.2-1.9 5.4-3 8.2-4.4 5.9-2.8 12.4-5 18.9-6.5l.9-.2c1-.2 1.7-1.1 1.7-2.1l.3-17.3V15.3c.1-.4.5-.7.9-.8h.2l36.3.6c.1 0 .3 0 .4.1.2.1.3.2.5.4.1.2.2.4.2.6l-.3 17.3c0 1 .6 1.9 1.6 2.1 4.8 1.2 8.5 2.4 12.6 4.1.5.2 1.1.5 1.7.7h.1c4.4 1.9 8.4 4.1 12.4 6.6l.8.5c.8.5 1.9.4 2.6-.3l12.4-12c.1-.1.2-.2.4-.2.1 0 .1 0 .2-.1.4-.1.8.1 1 .3l25.2 26.1c.1.1.2.2.2.4.2.4.1.9-.3 1.2l-12.4 12c-.7.7-.9 1.8-.4 2.6 1.9 3.1 3 5.4 4.4 8.2l1.6 3.5c2.1 5 3.7 10.2 4.9 15.4l.2.9c.2 1 1.1 1.7 2.1 1.7l17.3.3c.4 0 .7.2 1 .5.1.2.2.4.2.6l-.6 36.3c0 .1 0 .3-.1.4-.1.3-.5.5-.7.6h-.4l-7.5-.1c2.1 1.3 4.2 2.7 6.1 4.4h2.6c1.8-.3 3.3-1.5 4.1-3.2 0 0 0-.1.1-.1.2-.6.4-1.3.4-1.9l.6-36.3c0-1.1-.3-2.2-.9-3.1-1-1.5-2.6-2.4-4.4-2.5l-15.6-.3c-1.2-5.2-2.9-10.4-5-15.4l-1.6-3.5c-1.2-2.5-2.3-4.6-3.7-7.1L209.7 66c1.6-1.5 2.1-3.8 1.3-5.9-.3-.7-.6-1.3-1.1-1.8l-25.2-26.1c-1.3-1.3-3.1-1.9-4.8-1.6-.4.1-.7.2-1 .3-.7.3-1.3.6-1.8 1.1l-11.4 11c-4-2.5-8.1-4.6-12.5-6.5h-.1c-.6-.3-1.2-.5-1.7-.7-3.8-1.6-7.2-2.7-11.5-3.9l.3-15.6c0-1.1-.3-2.1-.9-3.1-.6-.9-1.4-1.6-2.4-2 0 0-.1 0-.1-.1-.6-.2-1.3-.4-1.9-.4l-36.3-.6c-.3 0-.7 0-1 .1-2.2.4-4 2.1-4.4 4.3v.2c0 .3-.1.6-.1.8l-.3 15.6c-6.5 1.5-13.1 3.8-19 6.6-2.5 1.2-4.6 2.3-7.1 3.7L55.9 30.2c-1-1-2.4-1.6-3.8-1.7-1.5 0-2.8.5-3.9 1.5l-26 25.3c-1.6 1.5-2.1 3.8-1.3 5.8v.1c.2.6.7 1.3 1.2 1.8L33 74.2c-2.8 4.6-5.3 9.4-7.3 14.3-1.6 3.8-2.7 7.2-3.9 11.5l-15.7-.3H5c-1.7.3-3.2 1.6-4 3.3v.1l-.3.9v.2l-.1.6v.2L0 141.3c0 .7.1 1.3.3 1.9v.1c.5 1.3 1.6 2.4 2.9 3h.1c.6.2 1.2.4 1.9.4l15.8.3c1.1 4.5 2.5 9 4.2 13.4v.1c.8 1.9 1.6 3.8 2.4 5.6 1.2 2.5 2.3 4.6 3.7 7.1L20.1 184c-.5.5-.9 1.1-1.2 1.7 0 0 0 .1-.1.1-.4.9-.5 2-.3 3 .1.4.2.7.3 1 .3.7.6 1.3 1.1 1.8l25.2 26.1c1.5 1.5 3.7 2.1 5.8 1.3h.1c.6-.2 1.3-.7 1.8-1.2L64.1 207c4.6 2.8 9.4 5.3 14.3 7.3 3.8 1.6 7.2 2.7 11.5 3.9l-.3 15.6c0 .7.1 1.4.4 2.1.8 2.1 2.8 3.4 5 3.4l36.3.6h.1c.3 0 .6 0 .9-.1 1.8-.3 3.3-1.5 4.1-3.2v-.1l.3-.9v-.2c0-.3.1-.6.1-.8l.3-15.6c6.5-1.5 13.1-3.8 19-6.6 2.4-1.1 4.4-2.2 6.8-3.6-1.1-1.1-1.9-2.3-2.7-3.5z"/><path class="st0" d="M167.2 72.7c-6.8-6.8-14.7-12.1-23.5-15.8-9.1-3.9-18.8-5.8-28.8-5.8s-19.7 2-28.8 5.8c-8.8 3.7-16.7 9.1-23.5 15.8-6.8 6.8-12.1 14.7-15.8 23.5C42.9 105.3 41 115 41 125s2 19.7 5.8 28.8c3.7 8.8 9.1 16.7 15.8 23.5 6.8 6.8 14.7 12.1 23.5 15.8 9.1 3.9 18.8 5.8 28.8 5.8s19.7-2 28.8-5.8c3.4-1.4 6.6-3.1 9.8-5-.2-1.6-.4-3.2-.4-4.8-3.5 2.3-7.1 4.2-11 5.9-8.6 3.6-17.7 5.5-27.1 5.5-9.4 0-18.5-1.8-27.1-5.5-8.3-3.5-15.7-8.5-22.1-14.9-6.4-6.4-11.4-13.8-14.9-22.1-3.6-8.6-5.5-17.7-5.5-27.1s1.8-18.5 5.5-27.1c3.5-8.3 8.5-15.7 14.9-22.1 6.4-6.4 13.8-11.4 22.1-14.9 8.6-3.6 17.7-5.5 27.1-5.5 9.4 0 18.5 1.8 27.1 5.5 8.3 3.5 15.7 8.5 22.1 14.9 6.4 6.4 11.4 13.8 14.9 22.1 3.6 8.6 5.5 17.7 5.5 27.1 0 5.8-.7 11.4-2.1 16.9 1.5-.5 3.1-.8 4.6-1.1 1.1-5.1 1.7-10.4 1.7-15.8 0-10-2-19.7-5.8-28.8-3.7-8.9-9-16.8-15.8-23.6z"/><g><path class="st0" d="M160.8 157.5c7.6-10.5 20-17.4 34-17.4 12.7 0 24.1 5.7 31.8 14.6l3.5-4.2c-.6-.7-1.2-1.4-1.9-2-8.9-8.9-20.7-13.8-33.3-13.8-12.6 0-24.4 4.9-33.3 13.8-1.4 1.4-2.7 2.9-3.9 4.4 1 1.5 2.1 3 3.1 4.6zM236.4 159.6l-3.7 4.5c2.5 5.4 4 11.4 4 17.8 0 23.1-18.7 41.8-41.8 41.8S153 205 153 181.9c0-6.1 1.3-11.9 3.7-17.2-1-1.9-2.1-3.6-3.3-5.3-3.7 6.8-5.7 14.5-5.7 22.5 0 12.6 4.9 24.4 13.8 33.3 8.9 8.9 20.7 13.8 33.3 13.8 12.6 0 24.4-4.9 33.3-13.8 8.9-8.9 13.8-20.7 13.8-33.3 0-7.9-1.9-15.5-5.5-22.3z"/></g><path d="M161.9 169.2c-.8 0-1.6-.5-2-1.3-3.9-8.9-10.1-16.4-18-21.8-8.1-5.5-17.6-8.4-27.3-8.4s-19.1 2.9-27.1 8.3c-7.9 5.3-14.1 12.7-18 21.4-.5 1.1-1.7 1.6-2.8 1.1-1.1-.5-1.6-1.7-1.1-2.8 4.3-9.5 11-17.5 19.6-23.2 8.8-5.9 19-9 29.5-9 10.6 0 20.9 3.2 29.7 9.1 8.6 5.8 15.4 14 19.6 23.6.5 1.1 0 2.3-1.1 2.8-.4.1-.7.2-1 .2z"/></svg>