<svg version="1.1" id="Layer_1" xmlns="http://www.w3.org/2000/svg" x="0" y="0" viewBox="0 0 250 250" style="enable-background:new 0 0 250 250" xml:space="preserve"><style>.st0{fill:#a7a9ac}</style><path class="st0" d="M246.2 121.2h-14.8c-.5-13-3.2-25.6-8.3-37.6-5.4-12.7-13-24.1-22.8-33.8-9.8-9.8-21.2-17.4-33.8-22.8-12-5.1-24.6-7.8-37.6-8.3V3.8c0-2.1-1.7-3.8-3.8-3.8-2.1 0-3.8 1.7-3.8 3.8v14.8c-13 .5-25.6 3.2-37.6 8.3-12.7 5.4-24.1 13-33.8 22.8-9.9 9.8-17.6 21.2-23 33.9-5.1 12-7.8 24.6-8.3 37.6H3.8c-2.1 0-3.8 1.7-3.8 3.8 0 2.1 1.7 3.8 3.8 3.8h14.8c.5 13 3.2 25.6 8.3 37.6 5.4 12.7 13 24.1 22.8 33.8 9.8 9.8 21.2 17.4 33.8 22.8 12 5.1 24.6 7.8 37.6 8.3v14.8c0 2.1 1.7 3.8 3.8 3.8 2.1 0 3.8-1.7 3.8-3.8v-14.8c13-.5 25.6-3.2 37.6-8.3 12.7-5.4 24.1-13 33.8-22.8 9.8-9.8 17.4-21.2 22.8-33.8 5.1-12 7.8-24.6 8.3-37.6H246c2.1 0 3.8-1.7 3.8-3.8.2-2.1-1.5-3.8-3.6-3.8zM216 163.5c-5 11.8-12.1 22.3-21.2 31.4-9.1 9.1-19.6 16.2-31.4 21.2-11 4.7-22.6 7.2-34.6 7.7v-23.9c0-2.1-1.7-3.8-3.8-3.8-2.1 0-3.8 1.7-3.8 3.8v23.9c-12-.5-23.6-3-34.6-7.7-11.8-5-22.3-12.1-31.4-21.2-9.1-9.1-16.2-19.6-21.2-31.4-4.7-11-7.2-22.6-7.7-34.6h23.9c2.1 0 3.8-1.7 3.8-3.8 0-2.1-1.7-3.8-3.8-3.8H26.3c.5-12 3-23.6 7.7-34.6 5-11.8 12.1-22.3 21.2-31.4 9.1-9.1 19.6-16.2 31.4-21.2 11-4.7 22.6-7.2 34.6-7.7v23.9c0 2.1 1.7 3.8 3.8 3.8 2.1 0 3.8-1.7 3.8-3.8v-24c12 .5 23.6 3 34.6 7.7 11.8 5 22.3 12.1 31.4 21.2 9.1 9.1 16.2 19.6 21.2 31.4 4.7 11 7.2 22.6 7.7 34.6h-23.9c-2.1 0-3.8 1.7-3.8 3.8 0 2.1 1.7 3.8 3.8 3.8h23.9c-.4 12-3 23.6-7.7 34.7z"/><path class="st0" d="M172.6 107.8c-2 .6-3.2 2.7-2.7 4.7 1.1 4 1.7 8.2 1.7 12.5 0 12.5-4.8 24.2-13.7 33-8.8 8.8-20.5 13.7-33 13.7s-24.2-4.8-33-13.7c-8.8-8.8-13.7-20.5-13.7-33s4.8-24.2 13.7-33c8.8-8.8 20.5-13.7 33-13.7 9.4 0 18.5 2.8 26.2 8 1.7 1.2 4.1.7 5.3-1 1.2-1.7.7-4.1-1-5.3-9-6.1-19.6-9.4-30.5-9.4-14.5 0-28.1 5.6-38.4 15.9-10.1 10.4-15.8 24-15.8 38.5s5.6 28.1 15.9 38.4c10.2 10.2 23.9 15.9 38.4 15.9s28.1-5.6 38.4-15.9c10.3-10.3 15.9-23.9 15.9-38.4 0-4.9-.7-9.8-2-14.5-.6-2.1-2.7-3.3-4.7-2.7z"/><path d="M122.4 148.8c-1 0-1.9-.4-2.6-1.1l-31.3-34.8c-1.3-1.4-1.2-3.6.3-4.9 1.4-1.3 3.6-1.2 4.9.3l28.7 31.9L183.6 69c1.2-1.5 3.4-1.6 4.9-.4s1.6 3.4.4 4.9L125 147.6c-.6.7-1.6 1.1-2.6 1.2z"/></svg>