<svg version="1.1" id="Layer_1" xmlns="http://www.w3.org/2000/svg" x="0" y="0" viewBox="0 0 250 250" style="enable-background:new 0 0 250 250" xml:space="preserve"><style>.st0{fill:#a7a9ac}</style><g id="statistic_generator_1_"><path class="st0" d="M143.9 250c-.7 0-1.4-.2-1.9-.7-.7-.5-1.1-1.3-1.2-2.2-.6-8.2-7.6-14.6-15.8-14.6s-15.2 6.4-15.8 14.6c-.1.9-.5 1.7-1.2 2.2-.7.5-1.6.8-2.4.6-8.9-1.4-17.8-3.7-26.3-7.1-.8-.3-1.5-1-1.8-1.8-.3-.8-.3-1.7.1-2.5 3.6-7.4.8-16.4-6.4-20.6-7.1-4.1-16.3-2-21 4.8-.5.7-1.3 1.2-2.1 1.3-.9.1-1.7-.1-2.4-.7-7.1-5.7-13.6-12.2-19.3-19.3-.5-.7-.8-1.6-.7-2.4.1-.9.6-1.6 1.3-2.1 6.8-4.6 8.9-13.9 4.8-21-4.1-7.1-13.1-9.9-20.6-6.4-.8.4-1.7.4-2.5.1-.8-.3-1.4-1-1.8-1.8-3.3-8.6-5.7-17.4-7.1-26.3-.1-.9.1-1.7.6-2.4s1.3-1.1 2.2-1.2c8.2-.6 14.6-7.6 14.6-15.8s-6.4-15.2-14.6-15.8c-.9-.1-1.7-.5-2.2-1.2-.5-.7-.8-1.6-.6-2.4C1.2 96.4 3.5 87.5 6.9 79c.3-.8 1-1.5 1.8-1.8.8-.3 1.7-.3 2.5.1 7.4 3.6 16.4.8 20.6-6.4 4.1-7.1 2-16.3-4.8-21-.7-.5-1.2-1.3-1.3-2.1-.1-.9.1-1.7.7-2.4 5.7-7.1 12.2-13.6 19.3-19.3.7-.5 1.5-.8 2.4-.7.9.1 1.6.6 2.1 1.3 4.6 6.8 13.9 8.9 21 4.8 7.1-4.1 9.9-13.1 6.4-20.6-.4-.8-.4-1.7-.1-2.5.3-.8 1-1.4 1.8-1.8C87.9 3.3 96.7.9 105.6-.5c.9-.1 1.7.1 2.4.6s1.1 1.3 1.2 2.2c.6 8.2 7.6 14.6 15.8 14.6s15.2-6.4 15.8-14.6c.1-.9.5-1.7 1.2-2.2s1.6-.8 2.4-.6c8.9 1.4 17.8 3.7 26.3 7.1.8.3 1.5 1 1.8 1.8.3.8.3 1.7-.1 2.5-3.6 7.4-.8 16.4 6.4 20.6 7.1 4.1 16.3 2 21-4.8.5-.7 1.3-1.2 2.1-1.3.9-.1 1.7.1 2.4.7 7.1 5.7 13.6 12.2 19.3 19.3.5.7.8 1.6.7 2.4-.1.9-.6 1.6-1.3 2.1-6.8 4.6-8.9 13.9-4.8 21 4.1 7.1 13.1 9.9 20.6 6.4.8-.4 1.7-.4 2.5-.1.8.3 1.4 1 1.8 1.8 3.3 8.6 5.7 17.4 7.1 26.3.1.9-.1 1.7-.6 2.4s-1.3 1.1-2.2 1.2c-8.2.6-14.6 7.6-14.6 15.8s6.4 15.2 14.6 15.8c.9.1 1.7.5 2.2 1.2.5.7.8 1.6.6 2.4-1.4 8.9-3.7 17.8-7.1 26.3-.3.8-1 1.5-1.8 1.8-.8.3-1.7.3-2.5-.1-7.4-3.6-16.4-.8-20.6 6.4-4.1 7.1-2 16.3 4.8 21 .7.5 1.2 1.3 1.3 2.1.1.9-.1 1.7-.7 2.4-5.7 7.1-12.2 13.6-19.3 19.3-.7.5-1.6.8-2.4.7-.9-.1-1.6-.6-2.1-1.3-4.6-6.8-13.9-8.9-21-4.8-7.1 4.1-9.9 13.1-6.4 20.6.4.8.4 1.7.1 2.5-.3.8-1 1.4-1.8 1.8-8.6 3.3-17.4 5.7-26.3 7.1-.2.1-.3.1-.5.1zM125 226.2c10.3 0 19.2 7.3 21.5 17.1 6.4-1.2 12.8-2.9 19-5.1-2.9-9.6 1.2-20.3 10.1-25.5 8.9-5.2 20.2-3.3 27.1 4 5-4.3 9.7-8.9 13.9-13.9-7.3-6.9-9.1-18.2-4-27.1 5.2-8.9 15.9-13 25.5-10.1 2.2-6.2 4-12.6 5.1-19-9.8-2.3-17.1-11.2-17.1-21.5s7.3-19.2 17.1-21.5c-1.2-6.4-2.9-12.8-5.1-19-9.6 2.9-20.3-1.2-25.5-10.1-5.2-8.9-3.3-20.2 4-27.1-4.3-5-8.9-9.7-13.9-13.9-6.9 7.3-18.2 9.1-27.1 4-8.9-5.2-13-15.9-10.1-25.5-6.2-2.2-12.6-4-19-5.1C144.2 16.7 135.3 24 125 24s-19.2-7.3-21.5-17.1c-6.4 1.2-12.8 2.9-19 5.1 2.9 9.6-1.2 20.3-10.1 25.5-8.9 5.2-20.2 3.3-27.1-4-5 4.3-9.7 8.9-13.9 13.9 7.3 6.9 9.1 18.2 4 27.1-5.2 8.9-15.9 13-25.5 10.1-2.2 6.2-4 12.6-5.1 19 9.8 2.3 17.1 11.2 17.1 21.5s-7.3 19.2-17.1 21.5c1.2 6.4 2.9 12.8 5.1 19 9.6-2.9 20.3 1.2 25.5 10.1 5.2 8.9 3.3 20.2-4 27.1 4.3 5 8.9 9.7 13.9 13.9 6.9-7.3 18.2-9.1 27.1-4 8.9 5.2 13 15.9 10.1 25.5 6.2 2.2 12.6 4 19 5.1 2.3-9.8 11.2-17.1 21.5-17.1zm0-4.3c-53.4 0-96.9-43.5-96.9-96.9S71.6 28.1 125 28.1s96.9 43.5 96.9 96.9-43.5 96.9-96.9 96.9zm0-187.5C75 34.4 34.4 75 34.4 125c0 50 40.7 90.6 90.6 90.6s90.6-40.7 90.6-90.6c0-50-40.6-90.6-90.6-90.6z"/><path class="st0" d="M134.5 53.7c32 4.2 57.6 29.9 61.9 61.9h-34.9c-3.4-13.2-13.8-23.5-26.9-26.9l-.1-35m-6.3-6.8v47c14.7 1.5 26.5 13.2 28 28h47c-1.7-40.7-34.4-73.4-75-75zm-12.5 6.8v34.9c-16.4 4.2-28.1 18.9-28.1 36.3 0 6.9 1.9 13.7 5.6 19.6L68.3 169c-9.8-12.6-15.1-28-15.1-44 0-36.6 27-66.8 62.5-71.3m6.3-6.8c-41.6 1.6-75 36-75 78 0 20.5 8 39.2 21 53.2l33.4-32.9c-4.7-5.5-7.5-12.5-7.5-20.3 0-16.2 12.4-29.5 28.1-31.1V46.9zm74.3 87.4c-1.7 12.6-6.7 24.6-14.5 34.7L157 144.5c2-3.2 3.4-6.6 4.4-10.2h34.9m6.8-6.3h-47c-.7 6.5-3.3 12.5-7.4 17.2l33.4 32.9c12.5-13.2 20.3-30.7 21-50.1zm-58.4 28.8 24.5 24.8c-12.6 9.8-28 15.2-44.1 15.2-16 0-31.5-5.3-44-15.1l24.4-24.8c5.9 3.6 12.7 5.6 19.6 5.6 6.9-.1 13.7-2 19.6-5.7m.7-8.2c-5.5 4.7-12.6 7.5-20.3 7.5-7.7 0-14.8-2.8-20.3-7.5L71.9 182c14 13 32.7 21 53.2 21 20.6 0 39.3-8 53.2-21l-32.9-33.4z"/><path d="M137.6 184.3c0 1.7-1.4 3.1-3.1 3.1-1.7 0-3.1-1.4-3.1-3.1s1.4-3.1 3.1-3.1c1.7-.1 3.1 1.3 3.1 3.1zm6.3-21.9c-1.7 0-3.1 1.4-3.1 3.1 0 1.7 1.4 3.1 3.1 3.1 1.7 0 3.1-1.4 3.1-3.1 0-1.7-1.4-3.1-3.1-3.1zm0 12.5c-1.7 0-3.1 1.4-3.1 3.1 0 1.7 1.4 3.1 3.1 3.1 1.7 0 3.1-1.4 3.1-3.1 0-1.7-1.4-3.1-3.1-3.1zm0 12.5c-1.7 0-3.1 1.4-3.1 3.1 0 1.7 1.4 3.1 3.1 3.1 1.7 0 3.1-1.4 3.1-3.1 0-1.7-1.4-3.1-3.1-3.1zm-18.8 0c-1.7 0-3.1 1.4-3.1 3.1 0 1.7 1.4 3.1 3.1 3.1 1.7 0 3.1-1.4 3.1-3.1.1-1.7-1.3-3.1-3.1-3.1zm25-28.1c0 1.7 1.4 3.1 3.1 3.1 1.6 0 2.8-1.2 3-2.7l-3.4-3.5c-1.5.2-2.7 1.5-2.7 3.1zm-25 15.6c-1.7 0-3.1 1.4-3.1 3.1 0 1.7 1.4 3.1 3.1 3.1 1.7 0 3.1-1.4 3.1-3.1.1-1.7-1.3-3.1-3.1-3.1zm9.4 18.7c-1.7 0-3.1 1.4-3.1 3.1 0 1.7 1.4 3.1 3.1 3.1 1.7 0 3.1-1.4 3.1-3.1 0-1.7-1.4-3.1-3.1-3.1zm0-25c-1.7 0-3.1 1.4-3.1 3.1 0 1.7 1.4 3.1 3.1 3.1 1.7 0 3.1-1.4 3.1-3.1 0-1.7-1.4-3.1-3.1-3.1zm0-12.5c-1.7 0-3.1 1.4-3.1 3.1 0 1.7 1.4 3.1 3.1 3.1 1.7 0 3.1-1.4 3.1-3.1 0-1.7-1.4-3.1-3.1-3.1zm36.6 18.6-2-2.1c.3 1 1 1.8 2 2.1zM140.8 153c0 1.7 1.4 3.1 3.1 3.1 1.7 0 3.1-1.4 3.1-3.1 0-1.7-1.4-3.1-3.1-3.1h-.1c-.9.7-1.8 1.3-2.8 1.9-.2.4-.2.8-.2 1.2zm-50 12.5c0-.7-.3-1.4-.7-1.9l-4.3 4.3c.5.4 1.1.7 1.9.7 1.7 0 3.1-1.4 3.1-3.1zm-9.4 18.8c0-1.7-1.4-3.1-3.1-3.1-1.7 0-3.1 1.4-3.1 3.1 0 .3.1.5.2.8 1 .8 2 1.6 3 2.3 1.6 0 3-1.4 3-3.1zm93.7 0c0-1.7-1.4-3.1-3.1-3.1-1.7 0-3.1 1.4-3.1 3.1 0 1.7 1.4 3.1 3 3.1 1-.8 2.1-1.6 3.1-2.4 0-.3.1-.5.1-.7zm-21.8-3.2c-1.7 0-3.1 1.4-3.1 3.1s1.4 3.1 3.1 3.1c1.7 0 3.1-1.4 3.1-3.1s-1.4-3.1-3.1-3.1zm0-12.5c-1.7 0-3.1 1.4-3.1 3.1 0 1.7 1.4 3.1 3.1 3.1 1.7 0 3.1-1.4 3.1-3.1 0-1.7-1.4-3.1-3.1-3.1zm-28.2-6.2c-1.7 0-3.1 1.4-3.1 3.1 0 1.7 1.4 3.1 3.1 3.1 1.7 0 3.1-1.4 3.1-3.1.1-1.7-1.3-3.1-3.1-3.1zm37.5 6.2c.7 0 1.3-.3 1.8-.7l-4.3-4.3c-.4.5-.7 1.2-.7 1.9.1 1.7 1.5 3.1 3.2 3.1zm-3.1 9.4c0 1.7 1.4 3.1 3.1 3.1 1.7 0 3.1-1.4 3.1-3.1 0-1.7-1.4-3.1-3.1-3.1-1.7 0-3.1 1.4-3.1 3.1zm-53.1 21.9c-.6 0-1.1.2-1.6.5 1.4.4 2.8.7 4.2 1-.6-.9-1.5-1.5-2.6-1.5zm-25.2-27.3-2.1 2.1c1-.3 1.8-1.1 2.1-2.1zm18.9 24.2c0-1.7-1.4-3.1-3.1-3.1-1.6 0-3 1.3-3.1 2.9 1.8.8 3.6 1.5 5.5 2.2.4-.6.7-1.3.7-2zm-9.3-6.3c0-1.7-1.4-3.1-3.1-3.1-1.7 0-3.1 1.4-3.1 3.1 0 .5.1.9.3 1.3 1 .6 2 1.2 3.1 1.8 1.5-.2 2.8-1.5 2.8-3.1zm-3.2-15.6c-1.7 0-3.1 1.4-3.1 3.1 0 1.7 1.4 3.1 3.1 3.1 1.7 0 3.1-1.4 3.1-3.1.1-1.7-1.3-3.1-3.1-3.1zm9.4 6.2c-1.7 0-3.1 1.4-3.1 3.1s1.4 3.1 3.1 3.1 3.1-1.4 3.1-3.1-1.4-3.1-3.1-3.1zm68.8 9.4c0-1.7-1.4-3.1-3.1-3.1-1.7 0-3.1 1.4-3.1 3.1 0 1.6 1.2 2.9 2.8 3.1 1.1-.6 2.2-1.2 3.2-1.9.1-.4.2-.8.2-1.2zm-12.5 3.1c-1.7 0-3.1 1.4-3.1 3.1 0 .7.3 1.4.7 1.9 1.9-.7 3.7-1.4 5.5-2.2-.2-1.5-1.5-2.8-3.1-2.8zm-9.4 6.3c-1.1 0-2 .6-2.6 1.4 1.4-.3 2.8-.6 4.1-1-.4-.2-.9-.4-1.5-.4zm-15.7 3c0-1.7-1.4-3-3.1-3-1.7 0-3.1 1.4-3.1 3 1 0 2.1.1 3.1.1 1.1 0 2.1 0 3.1-.1zm-21.8-40.5c-1.7 0-3.1 1.4-3.1 3.1 0 1.7 1.4 3.1 3.1 3.1 1.7 0 3.1-1.4 3.1-3.1 0-1.7-1.4-3.1-3.1-3.1zm9.4 6.2c-1.7 0-3.1 1.4-3.1 3.1 0 1.7 1.4 3.1 3.1 3.1 1.7 0 3.1-1.4 3.1-3.1 0-1.7-1.4-3.1-3.1-3.1zm0-12.5c-1.7 0-3.1 1.4-3.1 3.1 0 1.7 1.4 3.1 3.1 3.1 1.7 0 3.1-1.4 3.1-3.1 0-1.7-1.4-3.1-3.1-3.1zm-12.5-3.1c0 1.7 1.4 3.1 3.1 3.1 1.7 0 3.1-1.4 3.1-3.1 0-.4-.1-.8-.2-1.2-1-.6-2-1.3-2.9-2-1.8.1-3.1 1.5-3.1 3.2zm12.5 40.6c-1.7 0-3.1 1.4-3.1 3.1 0 1.7 1.4 3.1 3.1 3.1 1.7 0 3.1-1.4 3.1-3.1 0-1.7-1.4-3.1-3.1-3.1zm0-12.5c-1.7 0-3.1 1.4-3.1 3.1s1.4 3.1 3.1 3.1c1.7 0 3.1-1.4 3.1-3.1s-1.4-3.1-3.1-3.1zm-9.4-6.2c-1.7 0-3.1 1.4-3.1 3.1 0 1.7 1.4 3.1 3.1 3.1 1.7 0 3.1-1.4 3.1-3.1 0-1.7-1.4-3.1-3.1-3.1zM97 162.4c1.7 0 3.1-1.4 3.1-3.1 0-1.6-1.2-2.9-2.8-3.1l-3.4 3.4c.3 1.6 1.5 2.8 3.1 2.8zm0 6.2c-1.7 0-3.1 1.4-3.1 3.1 0 1.7 1.4 3.1 3.1 3.1s3.1-1.4 3.1-3.1c0-1.7-1.4-3.1-3.1-3.1zm9.4 18.8c-1.7 0-3.1 1.4-3.1 3.1 0 1.7 1.4 3.1 3.1 3.1 1.7 0 3.1-1.4 3.1-3.1 0-1.7-1.4-3.1-3.1-3.1zM161 55.9l-32.8 32.8v-8.8l27-27c1.2.5 2.4 1.1 3.6 1.6.8.5 1.5.9 2.2 1.4zm-32.8-9v4.3l4-4c-1.3-.2-2.6-.3-4-.3zm48.7 21.8-32 32c1.6 1.3 3.1 2.8 4.4 4.4l32-32-4.4-4.4zm-36-20.3-12.7 12.7v8.8l19.7-19.7c-2.3-.7-4.6-1.3-7-1.8zm45.1 30-32.8 32.8c1 2.1 1.8 4.2 2.3 6.5L190 83.2c-1.3-1.6-2.7-3.2-4-4.8zm13.8 23.7L180 121.8h8.8l12.7-12.7c-.4-2.4-1-4.7-1.7-7zm3.1 15.7-4 4h4.3c-.1-1.4-.2-2.7-.3-4zm-7.4-26.7c-.5-.7-.9-1.4-1.4-2.1l-32.8 32.8h8.8l27-27c-.5-1.2-1-2.5-1.6-3.7zm-28.7-31-34.5 34.5c2.3.5 4.5 1.3 6.5 2.3L171.6 64l-4.8-3.9z"/></g></svg>