<svg version="1.1" id="Layer_1" xmlns="http://www.w3.org/2000/svg" x="0" y="0" viewBox="0 0 250 250" style="enable-background:new 0 0 250 250" xml:space="preserve"><style>.st0{fill:#a7a9ac}</style><path class="st0" d="M213.3 176.4 183.9 125h14.2c0-40.3-32.8-73.1-73.1-73.1-25.2 0-48.4 12.8-61.8 34.1l-8.8-5.6c15.4-24.4 41.8-39 70.7-39 46.1 0 83.5 37.5 83.5 83.5v10.4h-6.7l12.4 21.7 15.5-21.7h-5.5V125c0-54.7-44.5-99.2-99.2-99.2V15.4c60.5 0 109.6 49.2 109.6 109.6H250l-36.7 51.4zM65.1 45.9l-6.3-8.3c3.5-2.7 7.2-5.1 11-7.3l5.3 9c-3.5 2-6.9 4.2-10 6.6zM85.2 34.1 81 24.5c3.4-1.5 7-2.8 10.5-4l3.2 9.9c-3.2 1.1-6.4 2.3-9.5 3.7z"/><path class="st0" d="m105.6 27.7-2-10.2c3.4-.7 6.8-1.2 10.2-1.5l1.1 10.4c-3.1.2-6.2.7-9.3 1.3zM124.6 234.6c-60.2 0-109.2-49.2-109.2-109.6H0l36.7-51.4L66.1 125H51.9c0 40.3 32.4 73.1 72.2 73.1 25.2 0 48.4-12.8 61.8-34.1l8.8 5.6c-15.4 24.4-41.8 39-70.7 39-45.6 0-82.6-37.5-82.6-83.5v-10.4h6.7L35.8 92.9l-15.5 21.7h5.5V125c0 54.7 44.3 99.2 98.8 99.2v10.4zM179.8 219.7l-5.3-9c3.4-2 6.8-4.2 9.9-6.6l6.3 8.3c-3.4 2.6-7.1 5.1-10.9 7.3zM158 229.4l-3.2-9.9c3.2-1 6.4-2.2 9.5-3.6l4.2 9.6c-3.4 1.5-6.9 2.8-10.5 3.9z"/><path class="st0" d="m135.8 234.1-1.1-10.4c3.1-.3 6.2-.8 9.2-1.4l2 10.2c-3.3.7-6.7 1.2-10.1 1.6z"/><path d="M87.8 173.9c-.4 0-.8 0-1.3-.1-4.6-.4-8.8-2.7-11.5-6.5-4.4-6.1-3.5-15 2.1-20.6l31.2-31.2c1.4-1.4 2-3.5 1.3-5.1-4.6-11.7-1.8-23.9 7.7-33.4 11.8-11.8 30.8-13.5 40.6-3.7 2 2 2 5.3 0 7.4l-14.8 14.8 7.4 7.4 14.8-14.8c1-1 2.3-1.5 3.7-1.5 1.4 0 2.7.6 3.7 1.5 9.8 9.8 8.1 28.8-3.7 40.6-9.5 9.5-21.7 12.3-33.4 7.7-1.6-.6-3.7-.1-5.1 1.3l-31.6 31.6c-3 3-7 4.6-11.1 4.6zm53.3-96.4c-5.4 0-11.7 2.2-16.4 6.9-3.8 3.8-9.5 11.7-5.3 22.2 2.2 5.5.7 11.9-3.7 16.3l-31.2 31.2c-2 2-2.4 5.1-1 7.1.9 1.3 2.3 2.1 3.9 2.2 1.5.2 3-.4 4.1-1.5l31.6-31.6c4.4-4.4 10.8-5.9 16.3-3.7 10.5 4.2 18.4-1.5 22.2-5.3 6.2-6.2 8-15 6.3-21.1l-13.7 13.7c-1 1-2.3 1.5-3.7 1.5-1.4 0-2.7-.6-3.7-1.5L132 99.1c-2-2-2-5.3 0-7.4L145.7 78c-1.4-.3-2.9-.5-4.6-.5z"/></svg>