<svg version="1.1" id="Layer_1" xmlns="http://www.w3.org/2000/svg" x="0" y="0" viewBox="0 0 250 250" style="enable-background:new 0 0 250 250" xml:space="preserve"><style>.st0{fill:#a7a9ac}.st1{fill:#424143}</style><path class="st0" d="M125 250c-32 0-64-12.2-88.4-36.6-1.5-1.5-1.5-4 0-5.5s4-1.5 5.5 0c45.7 45.7 120.1 45.7 165.8 0 22.1-22.1 34.3-51.6 34.3-82.9S230 64.3 207.9 42.1C166.2.5 99.7-3.8 53.2 32.4c-1.7 1.3-4.2 1-5.5-.7-1.3-1.7-1-4.2.7-5.5C98-12.3 168.9-7.9 213.4 36.6c48.7 48.7 48.7 128.1 0 176.8C189.1 237.8 157 250 125 250z"/><path class="st0" d="M74.2 46.9h-39c-2.2 0-3.9-1.7-3.9-3.9V3.9C31.3 1.7 33 0 35.2 0s3.9 1.7 3.9 3.9v35.2h35.2c2.2 0 3.9 1.7 3.9 3.9-.1 2.1-1.8 3.9-4 3.9z"/><path class="st1" d="M27.4 128.9H3.9c-2.2 0-3.9-1.7-3.9-3.9s1.7-3.9 3.9-3.9h23.4c2.2 0 3.9 1.7 3.9 3.9s-1.7 3.9-3.8 3.9zM5.7 150c-1.9 0-3.5-1.3-3.8-3.2-.4-2.1 1-4.2 3.2-4.5l23.1-4.1c2.1-.4 4.2 1 4.5 3.2s-1 4.2-3.2 4.5L6.4 150h-.7zM11.2 170.4c-1.6 0-3.1-1-3.7-2.6-.7-2 .3-4.3 2.3-5l22-8c2-.7 4.3.3 5 2.3.7 2-.3 4.3-2.3 5l-22 8c-.4.2-.8.3-1.3.3zM20.1 189.5c-1.3 0-2.7-.7-3.4-2-1.1-1.9-.4-4.3 1.4-5.3l20.3-11.7c1.9-1.1 4.3-.4 5.3 1.4 1.1 1.9.4 4.3-1.4 5.3L22.1 189c-.6.3-1.3.5-2 .5zM40.4 80.1c-.7 0-1.3-.2-2-.5L18.2 67.8c-1.9-1.1-2.5-3.5-1.4-5.3 1.1-1.9 3.5-2.5 5.3-1.4l20.3 11.7c1.9 1.1 2.5 3.5 1.4 5.3-.7 1.3-2 2-3.4 2zM33.2 95.5c-.4 0-.9-.1-1.3-.2l-22-8c-2-.7-3.1-3-2.3-5 .7-2 3-3.1 5-2.3l22 8c2 .7 3.1 3 2.3 5-.6 1.5-2.1 2.5-3.7 2.5zM28.8 112c-.2 0-.5 0-.7-.1L5 107.8c-2.1-.4-3.5-2.4-3.2-4.5s2.4-3.6 4.5-3.2l23.1 4.1c2.1.4 3.5 2.4 3.2 4.5-.3 1.9-1.9 3.3-3.8 3.3z"/><path class="st0" d="M124.7 203.2c-43.1 0-78.1-35.1-78.1-78.1S81.7 47 124.7 47s78.1 35.1 78.1 78.1-35 78.1-78.1 78.1zm0-148.5c-38.8 0-70.3 31.5-70.3 70.3s31.5 70.3 70.3 70.3S195 163.8 195 125s-31.5-70.3-70.3-70.3z"/><path class="st0" d="M124.7 62.5c-2.2 0-3.9-1.7-3.9-3.9v-7.8c0-2.2 1.7-3.9 3.9-3.9s3.9 1.7 3.9 3.9v7.8c0 2.2-1.7 3.9-3.9 3.9zM124.7 203.2c-2.2 0-3.9-1.7-3.9-3.9v-7.8c0-2.2 1.7-3.9 3.9-3.9s3.9 1.7 3.9 3.9v7.8c0 2.1-1.7 3.9-3.9 3.9zM199 128.9h-7.8c-2.2 0-3.9-1.7-3.9-3.9s1.7-3.9 3.9-3.9h7.8c2.2 0 3.9 1.7 3.9 3.9s-1.8 3.9-3.9 3.9zM58.3 128.9h-7.8c-2.2 0-3.9-1.7-3.9-3.9s1.7-3.9 3.9-3.9h7.8c2.2 0 3.9 1.7 3.9 3.9s-1.7 3.9-3.9 3.9zM144.3 148.5c-1 0-2-.4-2.8-1.1L122 127.8c-.7-.7-1.1-1.7-1.1-2.8V78.1c0-2.2 1.7-3.9 3.9-3.9s3.9 1.7 3.9 3.9v45.3l18.4 18.4c1.5 1.5 1.5 4 0 5.5-.8.8-1.8 1.2-2.8 1.2z"/></svg>