<svg version="1.1" id="Layer_1" xmlns="http://www.w3.org/2000/svg" x="0" y="0" viewBox="0 0 250 250" style="enable-background:new 0 0 250 250" xml:space="preserve"><style>.st0{fill:#a7a9ac}</style><path class="st0" d="M97.1 104.9c-1 0-2-.5-2.7-1.3-1.1-1.5-.8-3.5.7-4.6 7.4-5.5 18.3-8.7 29.8-8.9 5.7-.1 11.1.6 16.1 2 5.4 1.5 10.1 3.9 13.8 7 1.4 1.2 1.6 3.3.4 4.7-1.2 1.4-3.3 1.6-4.7.4-5.9-4.9-15.2-7.6-25.6-7.4-10 .2-19.7 3-26 7.6-.4.3-1.1.5-1.8.5zM93.7 84.2 92 77.8l5-1.4c1.7-.5 5.1-1 10.5-1.8 3.4-.5 6.9-.8 10.3-1l.3 6.6c-3.2.2-6.5.5-9.7.9-6.3.9-8.8 1.4-9.7 1.6l-5 1.5zM156.2 85l-6.4-1.7c-.7-.2-1.9-.5-3.4-.8-4.9-1-10-1.7-15-2.1l.4-6.6c5.4.4 10.7 1.1 15.9 2.2 1.6.3 2.9.6 3.8.9l6.4 1.7-1.7 6.4z"/><path class="st0" d="M143.8 98.9c-1.8 0-3.3-1.4-3.3-3.2 0-.5 0-.8-.1-1.2-.7-8.8-7.4-15.6-15.3-15.6s-14.7 6.9-15.4 15.6c0 .3 0 .7-.1 1.1 0 1.8-1.6 3.3-3.4 3.2-1.8 0-3.3-1.6-3.2-3.4 0-.6 0-1 .1-1.5.5-5.9 3-11.4 7.1-15.4s9.4-6.3 14.9-6.3 10.8 2.2 14.9 6.3c4.1 4 6.6 9.5 7 15.4 0 .5.1 1 .1 1.5 0 1.9-1.4 3.4-3.3 3.5z"/><path class="st0" d="M125 144.1c-15 0-27.1-12.2-27.1-27.1S110 89.8 125 89.8c15 0 27.1 12.2 27.1 27.1s-12.2 27.2-27.1 27.2zm0-47.6c-11.3 0-20.5 9.2-20.5 20.5s9.2 20.5 20.5 20.5 20.5-9.2 20.5-20.5-9.2-20.5-20.5-20.5z"/><path class="st0" d="M98.3 141.2c-1.8 0-3.3-1.4-3.3-3.2 0-.6-.4-15.3-1.3-29-.2-3.4-.4-6.6-.7-9.6-.8-9.8-1.6-12.4-1.9-13.1-2-4.7-5-8.9-8.8-12.2-3.7-3.2-8.1-5.6-12.8-6.9-.4-.1-.7-.2-1-.3-6.9-1.7-12.3-1.7-17 .1-5.3 2-10.3 6.2-16 13.8-2.1 2.8-4.4 6.1-6.8 9.9l-.3.5-14.6 24.6c-.9 1.6-3 2.1-4.5 1.1-1.6-.9-2.1-3-1.1-4.5l14.6-24.6.3-.5v-.1c2.5-4 4.9-7.4 7.1-10.4 6.5-8.7 12.4-13.6 19-16 6-2.2 12.6-2.3 20.8-.3.3.1.7.2 1.1.3 5.7 1.6 10.9 4.3 15.4 8.2 4.6 4 8.2 9 10.6 14.6.6 1.5 1.5 4.5 2.4 15.1.3 3 .5 6.3.7 9.7.9 13.9 1.2 28.6 1.3 29.3.2 1.9-1.3 3.5-3.2 3.5.1 0 0 0 0 0z"/><path class="st0" d="M50.9 190.8c-2.2 0-4.3-.1-6.5-.4-2-.3-3.8-.6-5.6-1-13.2-3.2-24.4-11.4-31.4-23-7.1-11.6-9.2-25.3-6-38.5 2.5-10.2 7.9-19.2 15.8-26.1 7.7-6.8 17-11 27.1-12.3 6.2-.8 12.5-.5 18.6 1 13.2 3.2 24.4 11.4 31.5 23 7.1 11.6 9.2 25.3 6 38.5-3 12.2-10.3 22.9-20.7 30-8.6 5.8-18.6 8.8-28.8 8.8zm0-95.1c-1.9 0-3.8.1-5.7.4-8.8 1.1-16.9 4.8-23.6 10.7-6.8 6-11.5 13.9-13.7 22.7-2.8 11.5-1 23.4 5.2 33.5 6.2 10.1 15.9 17.2 27.4 20 1.5.4 3.1.7 4.8.9 1.9.2 3.8.4 5.6.4 8.8 0 17.5-2.7 24.9-7.7 9.1-6.2 15.5-15.4 18-26.1 2.8-11.5.9-23.4-5.2-33.5-6.2-10.1-15.9-17.2-27.4-20-3.3-.9-6.8-1.3-10.3-1.3z"/><path class="st0" d="M96.6 105.1c-1.2 0-2.3-.6-2.9-1.8C88 92 77.7 83.8 65.4 80.8c-5.1-1.2-10.4-1.5-15.7-.8-6.8.9-13.4 3.5-19.1 7.4-1.5 1-3.5.7-4.5-.8s-.7-3.5.8-4.5c6.5-4.6 14.1-7.5 22-8.5 6-.8 12.1-.4 18 1 14.1 3.4 26 12.8 32.5 25.8.8 1.6.2 3.5-1.4 4.3-.4.3-.9.4-1.4.4z"/><path d="M21.7 135.9c-.2 0-.5 0-.7-.1-1.6-.4-2.6-2-2.2-3.6 2.1-8.6 7.4-15.9 14.9-20.5s16.4-6 25-3.9c1.6.4 2.6 2 2.2 3.6-.4 1.6-2 2.6-3.6 2.2-14.5-3.5-29.2 5.4-32.7 19.9-.4 1.4-1.6 2.4-2.9 2.4z"/><path class="st0" d="M151.7 141.2s-.1 0 0 0c-1.9 0-3.4-1.6-3.3-3.4 0-.6.4-15.4 1.3-29.3.2-3.4.4-6.7.7-9.7.9-10.5 1.7-13.6 2.4-15.1 2.3-5.6 6-10.6 10.6-14.6 4.5-3.9 9.7-6.7 15.4-8.2.4-.1.8-.2 1.1-.3 8.3-2 14.9-1.9 20.8.3 6.6 2.4 12.4 7.4 19 16 2.3 3 4.6 6.4 7.1 10.4v.1l.3.5 14.6 24.6c.9 1.6.4 3.6-1.1 4.5-1.6.9-3.6.4-4.5-1.1l-14.6-24.6-.3-.5c-2.4-3.8-4.7-7.1-6.8-9.9-5.7-7.6-10.6-11.8-16-13.8-4.7-1.7-10.1-1.7-17-.1-.3.1-.6.1-1 .3-4.8 1.3-9.1 3.6-12.8 6.9-3.8 3.3-6.8 7.5-8.8 12.2-.3.7-1 3.3-1.9 13.1-.3 3-.5 6.2-.7 9.6-.9 13.8-1.2 28.4-1.3 29 .1 1.7-1.4 3.1-3.2 3.1z"/><path class="st0" d="M199.1 190.8c-10.2 0-20.1-3.1-28.7-8.9-10.4-7.1-17.8-17.8-20.7-30-3.2-13.2-1.1-26.9 6-38.5 7.1-11.6 18.2-19.8 31.5-23 6.1-1.5 12.4-1.8 18.6-1 10.1 1.3 19.5 5.6 27.1 12.3 7.8 6.9 13.3 15.9 15.8 26.1 3.2 13.2 1.1 26.9-6 38.5-7.1 11.6-18.2 19.8-31.4 23-1.7.4-3.6.8-5.5 1-2.4.4-4.6.5-6.7.5zm0-95.1c-3.5 0-7 .4-10.5 1.3-11.5 2.8-21.2 9.9-27.4 20-6.2 10.1-8 22-5.2 33.5 2.6 10.7 9 19.9 18 26.1 9 6.1 19.8 8.7 30.6 7.4 1.7-.2 3.3-.5 4.8-.9 11.5-2.8 21.2-9.9 27.4-20 6.2-10.1 8-22 5.2-33.5-2.2-8.9-6.9-16.7-13.7-22.7-6.7-5.9-14.8-9.6-23.6-10.7-1.8-.4-3.7-.5-5.6-.5z"/><path class="st0" d="M153.4 105.1c-.5 0-1-.1-1.4-.3-1.6-.8-2.2-2.7-1.4-4.3 6.5-13 18.4-22.4 32.5-25.8 5.9-1.4 12-1.8 18-1 7.9 1 15.4 4 22 8.5 1.5 1 1.8 3 .8 4.5s-3 1.8-4.5.8c-5.7-4-12.3-6.5-19.1-7.4-5.3-.7-10.5-.4-15.7.9-12.3 3-22.6 11.2-28.3 22.5-.6 1-1.7 1.6-2.9 1.6z"/><path d="M170 135.9c-.2 0-.5 0-.7-.1-1.6-.4-2.6-2-2.2-3.6 2.1-8.6 7.4-15.9 14.9-20.5s16.4-6 25-3.9c1.6.4 2.6 2 2.2 3.6-.4 1.6-2 2.6-3.6 2.2-7-1.7-14.3-.6-20.5 3.2-6.2 3.8-10.5 9.7-12.2 16.7-.4 1.4-1.6 2.4-2.9 2.4z"/></svg>